HIERARCHY
ROOT Hips
{
  OFFSET 0 0 0
  CHANNELS 6 Xposition Yposition Zposition Zrotation Xrotation Yrotation
  JOINT Spine
  {
    OFFSET 0 10 0
    CHANNELS 3 Zrotation Xrotation Yrotation
    JOINT Neck
    {
      OFFSET 0 30 0
      CHANNELS 3 Zrotation Xrotation Yrotation
      JOINT Head
      {
        OFFSET 0 8 0
        CHANNELS 3 Zrotation Xrotation Yrotation
        End Site
        {
          OFFSET 0 10 0
        }
      }
    }
    JOINT LeftArm
    {
      OFFSET 15 30 0
      CHANNELS 3 Zrotation Xrotation Yrotation
      JOINT LeftForeArm
      {
        OFFSET 25 0 0
        CHANNELS 3 Zrotation Xrotation Yrotation
        JOINT LeftHand
        {
          OFFSET 25 0 0
          CHANNELS 3 Zrotation Xrotation Yrotation
          End Site
          {
            OFFSET 10 0 0
          }
        }
      }
    }
    JOINT RightArm
    {
      OFFSET -15 30 0
      CHANNELS 3 Zrotation Xrotation Yrotation
      JOINT RightForeArm
      {
        OFFSET -25 0 0
        CHANNELS 3 Zrotation Xrotation Yrotation
        JOINT RightHand
        {
          OFFSET -25 0 0
          CHANNELS 3 Zrotation Xrotation Yrotation
          End Site
          {
            OFFSET -10 0 0
          }
        }
      }
    }
  }
  JOINT LeftUpLeg
  {
    OFFSET 10 -10 0
    CHANNELS 3 Zrotation Xrotation Yrotation
    JOINT LeftLeg
    {
      OFFSET 0 -35 0
      CHANNELS 3 Zrotation Xrotation Yrotation
      JOINT LeftToe
      {
        OFFSET 0 -40 0
        CHANNELS 3 Zrotation Xrotation Yrotation
        JOINT LeftToeEnd
        {
          OFFSET 0 0 0
          CHANNELS 3 Zrotation Xrotation Yrotation
          End Site
          {
            OFFSET 0 0 15
          }
        }
      }
    }
  }
  JOINT RightUpLeg
  {
    OFFSET -10 -10 0
    CHANNELS 3 Zrotation Xrotation Yrotation
    JOINT RightLeg
    {
      OFFSET 0 -35 0
      CHANNELS 3 Zrotation Xrotation Yrotation
      JOINT RightToe
      {
        OFFSET 0 -40 0
        CHANNELS 3 Zrotation Xrotation Yrotation
        JOINT RightToeEnd
        {
          OFFSET 0 0 0
          CHANNELS 3 Zrotation Xrotation Yrotation
          End Site
          {
            OFFSET 0 0 15
          }
        }
      }
    }
  }
}
MOTION
Frames:	15
Frame Time:	0.0333333
80.9087 85.0417 -50.2448 -4.40567 8.17656 -47.2533 2.74059 5.27684 -1.02504 -12.0736 -25.1588 -5.2131 10.6866 32.3088 -7.10317 -90.7405 23.5993 -2.86247 14.2886 -3.12885 -21.8171 -0.595036 11.6473 -1.85445 90.022 17.9609 3.59752 -15.0333 -3.22813 24.0551 0.194631 12.0521 -0.156358 7.85578 -15.3234 -1.72556 0.0367694 43.408 -5.52693 4.04969 -30.1026 0.879487 -0 0 6.36111e-015 15.2773 -7.39875 2.31523 -0.000309329 26.5615 -8.97698 -2.97582 -21.8294 -16.4847 -1.51661e-021 -7.58303e-022 -0 
80.6484 84.9799 -50.3274 -4.23817 7.9925 -47.2094 2.32341 5.30187 -0.788353 -12.0026 -24.8647 -5.08172 10.5629 32.5257 -7.01582 -90.8018 23.2536 -2.58122 14.3314 -3.14991 -21.9057 -0.63885 12.1011 -1.8276 90.3471 18.001 3.19357 -15.1333 -3.28138 24.253 0.179287 11.9407 -0.156293 7.35397 -15.1789 -2.71003 0.0104927 43.5062 -5.53594 4.45511 -30.2818 1.98082 2.48481e-017 2.48481e-017 3.18055e-015 15.1175 -7.54874 2.01017 -0.00228955 27.0297 -9.10434 -2.9974 -22.2063 -16.4265 3.88251e-019 -7.76503e-019 -3.18055e-015 
80.466 84.9259 -50.3848 -4.46669 7.97917 -46.5817 2.59597 5.5724 -1.00596 -12.199 -24.7397 -5.0976 10.7414 32.7524 -7.08394 -90.8293 22.9852 -2.63255 14.408 -3.18634 -22.0624 -0.638993 10.8948 -1.87413 90.3442 18.1695 3.08953 -15.105 -3.26284 24.1743 0.199805 11.7287 -0.152897 7.63016 -15.2775 -3.0383 0.0233333 43.8653 -5.59383 4.44958 -30.5076 1.84508 -9.93923e-017 -4.96962e-017 -9.54166e-015 15.3945 -7.29289 1.63108 -0.00515673 26.9583 -9.10179 -3.24549 -22.547 -16.6421 -1.72418e-034 3.10601e-018 3.18055e-015 
80.0791 84.8542 -50.4138 -4.33574 7.98997 -46.6521 2.65414 5.35517 -0.769792 -12.4191 -24.0986 -4.95569 10.8934 32.5003 -6.94484 -91.2965 22.1952 -2.01669 14.4459 -3.20366 -22.1288 -0.519375 11.5018 -1.90775 90.4775 17.6294 2.76102 -14.9314 -3.17749 23.8533 0.187594 12.4594 -0.162696 7.69048 -15.3847 -3.09434 0.0437165 44.1767 -5.6261 4.46963 -30.7187 1.81211 -1.49089e-016 4.96962e-017 -0 15.4081 -7.30194 1.47049 -0.00885417 27.2061 -9.10897 -3.34235 -23.0156 -16.2866 1.2424e-017 -4.96962e-017 -0 
79.7626 84.7454 -50.5246 -5.06806 8.45846 -46.4929 3.77929 5.88726 -0.635563 -11.4412 -24.8485 -4.48272 8.64798 33.6179 -6.44437 -91.1834 22.6494 -2.25863 14.1341 -3.03668 -21.5327 -0.603786 11.187 -1.86641 90.2753 17.4235 2.89414 -14.7584 -3.09147 23.5215 0.179929 12.369 -0.16782 8.67149 -15.5108 -3.58221 0.0647031 45.1272 -5.6606 4.81187 -31.3835 2.58817 9.93923e-017 -9.93923e-017 -0 16.5631 -6.53065 1.69077 -0.0120284 26.4743 -8.94069 -3.84799 -23.0897 -16.2498 -4.96962e-017 7.45443e-017 3.18055e-015 
79.3186 84.6568 -50.5852 -4.98415 8.47067 -46.5755 3.90007 5.82904 -0.348241 -11.6056 -24.4137 -4.40871 8.87298 33.5973 -6.56327 -92.3304 20.9173 -0.641614 14.8304 -3.42108 -22.9348 -0.468117 12.8442 -1.91406 90.3946 16.9745 2.62291 -14.6433 -3.03225 23.2957 0.175219 12.9722 -0.171069 8.76664 -15.8974 -3.59642 0.129595 46.0394 -5.73895 4.827 -31.4705 2.63507 3.97569e-016 -4.96962e-017 3.18055e-015 16.5872 -6.63333 1.2413 -0.0247963 26.9264 -8.89015 -3.99972 -23.8765 -15.5103 -9.93923e-017 0 -0 
78.901 84.5901 -50.755 -5.24486 8.60008 -46.4461 4.25492 6.3341 -0.13686 -11.5909 -24.2261 -4.4751 9.15907 33.2489 -6.86238 -92.1613 21.2183 -0.6157 14.7512 -3.38114 -22.7976 -0.534223 13.0627 -1.87812 90.281 16.9187 2.62888 -14.6062 -3.01564 23.2296 0.171605 12.9365 -0.173254 9.17904 -16.4824 -3.91547 0.212981 47.523 -5.83124 4.96288 -31.4675 3.36407 4.96962e-017 -9.93923e-017 -0 17.094 -6.18682 0.995534 -0.0331821 26.5864 -8.70011 -4.40652 -24.1415 -15.2807 -4.96962e-017 3.47873e-016 6.36111e-015 
78.4516 84.6049 -50.8633 -5.71091 8.81866 -46.513 5.0603 7.08243 0.0385455 -11.4237 -24.5448 -4.33524 8.83606 33.4603 -6.84684 -91.711 22.0101 -1.20738 14.2798 -3.12059 -21.8748 -0.58735 12.6341 -1.86692 90.0783 16.6668 2.91984 -14.5421 -2.9823 23.1068 0.17058 13.2393 -0.175093 10.0207 -17.4193 -3.26319 0.373189 49.7336 -6.00263 4.80017 -30.9469 3.3677 -3.47873e-016 3.97569e-016 3.18055e-015 17.5646 -5.35692 0.0398095 -0.0563775 25.8811 -8.32317 -3.99787 -24.5925 -14.0827 -1.98785e-016 0 -0 
77.9507 84.6752 -51.0988 -5.40266 8.72343 -46.777 4.71518 7.57549 0.355492 -11.4458 -24.6508 -4.52944 9.50341 33.1937 -7.23134 -91.3758 21.9187 -1.12021 14.428 -3.20506 -22.1773 -0.58974 12.3747 -1.88049 90.1017 16.6851 3.21237 -14.5113 -2.96551 23.0492 0.16909 13.1883 -0.17615 10.4808 -19.4313 -1.85599 0.610085 52.7157 -6.38906 4.32718 -29.3632 2.59824 5.96354e-016 0 -9.54166e-015 17.4589 -5.18526 0.0870284 -0.0757569 25.642 -8.09674 -4.16545 -24.9241 -13.154 -5.51738e-033 9.93923e-017 3.18055e-015 
77.4702 84.7244 -51.1753 -5.63798 8.68259 -46.7971 5.22849 8.4067 0.566532 -11.5289 -24.1827 -4.08641 10.0665 32.9284 -6.70689 -91.5452 21.4823 -1.18977 14.4655 -3.21901 -22.247 -0.582276 12.4005 -1.90682 89.792 16.8628 3.27128 -14.6342 -3.02392 23.2793 0.168 13.0851 -0.176695 11.3792 -21.8867 -0.662857 0.940596 56.776 -6.88292 3.46061 -26.99 0.914921 -7.95139e-016 1.19271e-015 6.36111e-015 17.6395 -4.27354 -0.499328 -0.0939409 24.8173 -7.64196 -4.09458 -25.0689 -12.3495 -0 -3.97569e-016 -0 
76.9743 84.7134 -51.1984 -5.5587 8.4134 -46.659 5.29759 9.09934 0.784919 -11.6113 -24.0062 -4.13184 10.2526 32.5471 -7.00224 -91.6391 21.5344 -1.17182 14.4823 -3.22841 -22.2795 -0.677663 11.2636 -1.87578 89.5531 16.789 3.32368 -14.7159 -3.06435 23.4488 0.167016 12.8592 -0.176733 11.5881 -24.7222 -0.371322 1.26859 60.606 -7.38524 2.7192 -24.1418 -0.636766 -1.59028e-015 0 -0 17.3813 -3.89829 -1.21305 -0.116905 24.9255 -7.26617 -4.0547 -25.8794 -11.6221 -0 -9.93923e-017 -0 
76.3792 84.7249 -51.1058 -6.08045 8.63885 -47.4764 6.34071 10.2465 1.53307 -12.0942 -23.7762 -4.03835 10.6441 31.8869 -7.07059 -92.1128 21.6745 -0.984647 14.6998 -3.35844 -22.702 -0.665361 10.7673 -1.88187 88.6893 18.2454 3.24052 -14.93 -3.16828 23.8378 0.16374 11.768 -0.175835 13.0509 -26.8788 0.86333 1.4724 62.7938 -7.6985 2.50953 -22.2027 -3.5152 -7.95139e-016 1.59028e-015 6.36111e-015 17.8478 -2.45012 -1.62125 -0.120584 23.6493 -6.64366 -4.01477 -25.8409 -11.1398 -0 -7.95139e-016 -0 
75.7205 84.7565 -50.8747 -5.97531 8.56025 -48.0125 6.60259 10.896 2.14702 -11.9456 -23.619 -3.79363 10.4013 31.4911 -7.05522 -92.4143 20.9687 -0.853789 14.8113 -3.41681 -22.9162 -0.635045 11.5707 -1.88603 88.2188 18.3924 3.28015 -14.8807 -3.14447 23.754 0.16549 12.159 -0.175618 13.3252 -29.2081 1.30881 1.48021 63.4339 -7.77542 1.83337 -22.1429 -5.48767 1.59028e-015 -3.97569e-016 -3.18055e-015 17.6703 -1.5275 -2.05602 -0.133033 22.9886 -6.17582 -4.09422 -26.5466 -10.0042 2.20695e-032 -3.97569e-016 3.18055e-015 
74.9659 84.8155 -50.535 -5.62478 8.36136 -48.6118 6.79405 11.3166 2.94342 -12.6424 -23.0308 -3.68308 11.2469 30.7307 -7.48452 -93.162 20.1693 -0.424896 14.9971 -3.51876 -23.2848 -0.512002 12.1664 -1.95288 87.6387 18.1701 3.17832 -14.7578 -3.08916 23.5538 0.167957 12.6885 -0.17525 13.246 -31.1045 1.87114 1.23988 62.1518 -7.48949 1.93082 -22.2926 -5.07778 -7.95139e-016 7.95139e-016 -9.54166e-015 17.2069 -0.674511 -2.43794 -0.144336 22.4134 -5.67844 -3.99653 -27.2495 -8.79569 -3.97569e-016 1.39149e-015 3.18055e-015 
74.1269 84.8269 -50.0974 -5.45188 8.18928 -48.9427 7.02296 11.8663 3.21689 -12.7132 -23.1496 -3.58912 11.3202 30.8093 -7.45613 -93.6172 19.3264 -0.0147754 15.0991 -3.57643 -23.4919 -0.431794 12.271 -1.98146 87.2581 18.0419 3.34787 -14.6066 -3.00991 23.2467 0.168814 12.6361 -0.174291 13.0957 -32.6761 2.40188 0.872197 59.7155 -7.02408 2.65057 -22.122 -1.91781 9.93923e-016 0 -6.36111e-015 17.0304 0.440747 -2.23209 -0.130503 21.7615 -5.12862 -4.60923 -27.9416 -9.07401 3.97569e-016 -1.98785e-016 -3.18055e-015 
